<mxfile host="app.diagrams.net" modified="2021-01-28T01:55:14.108Z" agent="5.0 (X11; Linux x86_64) AppleWebKit/537.36 (KHTML, like Gecko) Chrome/86.0.4240.193 Safari/537.36" etag="EbmTXVVGCJ8hlvFPYqjI" version="14.2.7" type="github">
  <diagram name="Page-1" id="a7904f86-f2b4-8e86-fa97-74104820619b">
    <mxGraphModel dx="1422" dy="1621" grid="1" gridSize="10" guides="1" tooltips="1" connect="1" arrows="1" fold="1" page="1" pageScale="1" pageWidth="1100" pageHeight="850" background="#ffffff" math="0" shadow="0">
      <root>
        <mxCell id="0" />
        <mxCell id="1" parent="0" />
        <mxCell id="24794b860abc3c2d-29" value="&lt;p style=&quot;margin: 0px ; margin-top: 4px ; text-align: center ; text-decoration: underline&quot;&gt;&lt;b&gt;Object:Type&lt;/b&gt;&lt;/p&gt;&lt;hr&gt;&lt;p style=&quot;margin: 0px ; margin-left: 8px&quot;&gt;field1 = value1&lt;br&gt;field2 = value2&lt;br&gt;field3 = value3&lt;/p&gt;&lt;p style=&quot;margin: 0px ; margin-left: 8px&quot;&gt;field4 = value4&lt;br&gt;&lt;/p&gt;&lt;p style=&quot;margin: 0px ; margin-left: 8px&quot;&gt;field5 = value5&lt;br&gt;&lt;/p&gt;&lt;p style=&quot;margin: 0px ; margin-left: 8px&quot;&gt;field6 = value6&lt;br&gt;&lt;/p&gt;&lt;p style=&quot;margin: 0px ; margin-left: 8px&quot;&gt;field7 = value7&lt;br&gt;&lt;/p&gt;&lt;p style=&quot;margin: 0px ; margin-left: 8px&quot;&gt;field8 = value8&lt;br&gt;&lt;/p&gt;&lt;p style=&quot;margin: 0px ; margin-left: 8px&quot;&gt;field9 = value9&lt;br&gt;&lt;/p&gt;&lt;p style=&quot;margin: 0px ; margin-left: 8px&quot;&gt;field10 = value10&lt;br&gt;&lt;/p&gt;&lt;p style=&quot;margin: 0px ; margin-left: 8px&quot;&gt;field11 = value11&lt;br&gt;&lt;/p&gt;&lt;p style=&quot;margin: 0px ; margin-left: 8px&quot;&gt;field12 = value12&lt;/p&gt;" style="verticalAlign=top;align=left;overflow=fill;fontSize=12;fontFamily=Helvetica;html=1;rounded=0;shadow=0;comic=0;labelBackgroundColor=none;strokeWidth=1" parent="1" vertex="1">
          <mxGeometry x="120" y="220" width="140" height="200" as="geometry" />
        </mxCell>
        <mxCell id="ZOv54P5JUt-0kfKtkWaR-3" value="" style="rounded=0;whiteSpace=wrap;html=1;" parent="1" vertex="1">
          <mxGeometry x="190" y="-490" width="660" height="600" as="geometry" />
        </mxCell>
        <mxCell id="ZOv54P5JUt-0kfKtkWaR-10" style="edgeStyle=orthogonalEdgeStyle;rounded=0;orthogonalLoop=1;jettySize=auto;html=1;entryX=0.5;entryY=1;entryDx=0;entryDy=0;entryPerimeter=0;" parent="1" source="ZOv54P5JUt-0kfKtkWaR-4" target="ZOv54P5JUt-0kfKtkWaR-9" edge="1">
          <mxGeometry relative="1" as="geometry" />
        </mxCell>
        <mxCell id="ZOv54P5JUt-0kfKtkWaR-19" style="edgeStyle=orthogonalEdgeStyle;rounded=0;orthogonalLoop=1;jettySize=auto;html=1;exitX=0.5;exitY=1;exitDx=0;exitDy=0;entryX=0;entryY=0.5;entryDx=0;entryDy=0;" parent="1" source="ZOv54P5JUt-0kfKtkWaR-4" target="ZOv54P5JUt-0kfKtkWaR-7" edge="1">
          <mxGeometry relative="1" as="geometry" />
        </mxCell>
        <mxCell id="ZOv54P5JUt-0kfKtkWaR-25" style="edgeStyle=orthogonalEdgeStyle;rounded=0;orthogonalLoop=1;jettySize=auto;html=1;exitX=1;exitY=0.5;exitDx=0;exitDy=0;entryX=0;entryY=0.5;entryDx=0;entryDy=0;" parent="1" source="ZOv54P5JUt-0kfKtkWaR-4" target="ZOv54P5JUt-0kfKtkWaR-5" edge="1">
          <mxGeometry relative="1" as="geometry" />
        </mxCell>
        <mxCell id="ZOv54P5JUt-0kfKtkWaR-4" value="payment" style="rounded=0;whiteSpace=wrap;html=1;" parent="1" vertex="1">
          <mxGeometry x="270" y="-300" width="120" height="50" as="geometry" />
        </mxCell>
        <mxCell id="ZOv54P5JUt-0kfKtkWaR-23" style="edgeStyle=orthogonalEdgeStyle;rounded=0;orthogonalLoop=1;jettySize=auto;html=1;exitX=0.5;exitY=1;exitDx=0;exitDy=0;entryX=0.5;entryY=0;entryDx=0;entryDy=0;" parent="1" source="ZOv54P5JUt-0kfKtkWaR-5" target="ZOv54P5JUt-0kfKtkWaR-7" edge="1">
          <mxGeometry relative="1" as="geometry" />
        </mxCell>
        <mxCell id="ZOv54P5JUt-0kfKtkWaR-26" style="edgeStyle=orthogonalEdgeStyle;rounded=0;orthogonalLoop=1;jettySize=auto;html=1;exitX=1;exitY=0.5;exitDx=0;exitDy=0;entryX=0;entryY=0.5;entryDx=0;entryDy=0;" parent="1" source="ZOv54P5JUt-0kfKtkWaR-5" target="ZOv54P5JUt-0kfKtkWaR-6" edge="1">
          <mxGeometry relative="1" as="geometry" />
        </mxCell>
        <mxCell id="ZOv54P5JUt-0kfKtkWaR-5" value="shipping" style="rounded=0;whiteSpace=wrap;html=1;" parent="1" vertex="1">
          <mxGeometry x="450" y="-300" width="120" height="50" as="geometry" />
        </mxCell>
        <mxCell id="ZOv54P5JUt-0kfKtkWaR-29" style="edgeStyle=orthogonalEdgeStyle;rounded=0;orthogonalLoop=1;jettySize=auto;html=1;exitX=0.5;exitY=1;exitDx=0;exitDy=0;entryX=1;entryY=0.5;entryDx=0;entryDy=0;" parent="1" source="ZOv54P5JUt-0kfKtkWaR-6" target="ZOv54P5JUt-0kfKtkWaR-7" edge="1">
          <mxGeometry relative="1" as="geometry" />
        </mxCell>
        <mxCell id="ZOv54P5JUt-0kfKtkWaR-6" value="notification" style="rounded=0;whiteSpace=wrap;html=1;" parent="1" vertex="1">
          <mxGeometry x="640" y="-300" width="120" height="50" as="geometry" />
        </mxCell>
        <mxCell id="ZOv54P5JUt-0kfKtkWaR-30" style="edgeStyle=orthogonalEdgeStyle;rounded=0;orthogonalLoop=1;jettySize=auto;html=1;exitX=0.5;exitY=1;exitDx=0;exitDy=0;entryX=0.5;entryY=0;entryDx=0;entryDy=0;" parent="1" source="ZOv54P5JUt-0kfKtkWaR-7" target="ZOv54P5JUt-0kfKtkWaR-8" edge="1">
          <mxGeometry relative="1" as="geometry" />
        </mxCell>
        <mxCell id="ZOv54P5JUt-0kfKtkWaR-7" value="Discovery" style="rounded=0;whiteSpace=wrap;html=1;" parent="1" vertex="1">
          <mxGeometry x="450" y="-210" width="120" height="50" as="geometry" />
        </mxCell>
        <mxCell id="ZOv54P5JUt-0kfKtkWaR-38" style="edgeStyle=orthogonalEdgeStyle;rounded=0;orthogonalLoop=1;jettySize=auto;html=1;exitX=0.5;exitY=1;exitDx=0;exitDy=0;" parent="1" source="ZOv54P5JUt-0kfKtkWaR-8" target="ZOv54P5JUt-0kfKtkWaR-32" edge="1">
          <mxGeometry relative="1" as="geometry" />
        </mxCell>
        <mxCell id="ZOv54P5JUt-0kfKtkWaR-8" value="Gateway" style="rounded=0;whiteSpace=wrap;html=1;" parent="1" vertex="1">
          <mxGeometry x="450" y="-115" width="120" height="50" as="geometry" />
        </mxCell>
        <mxCell id="ZOv54P5JUt-0kfKtkWaR-9" value="" style="shape=cylinder3;whiteSpace=wrap;html=1;boundedLbl=1;backgroundOutline=1;size=15;" parent="1" vertex="1">
          <mxGeometry x="300" y="-465" width="60" height="80" as="geometry" />
        </mxCell>
        <mxCell id="ZOv54P5JUt-0kfKtkWaR-11" style="edgeStyle=orthogonalEdgeStyle;rounded=0;orthogonalLoop=1;jettySize=auto;html=1;entryX=0.5;entryY=1;entryDx=0;entryDy=0;entryPerimeter=0;" parent="1" target="ZOv54P5JUt-0kfKtkWaR-12" edge="1">
          <mxGeometry relative="1" as="geometry">
            <mxPoint x="700" y="-300" as="sourcePoint" />
          </mxGeometry>
        </mxCell>
        <mxCell id="ZOv54P5JUt-0kfKtkWaR-12" value="" style="shape=cylinder3;whiteSpace=wrap;html=1;boundedLbl=1;backgroundOutline=1;size=15;" parent="1" vertex="1">
          <mxGeometry x="670" y="-465" width="60" height="80" as="geometry" />
        </mxCell>
        <mxCell id="ZOv54P5JUt-0kfKtkWaR-13" style="edgeStyle=orthogonalEdgeStyle;rounded=0;orthogonalLoop=1;jettySize=auto;html=1;entryX=0.5;entryY=1;entryDx=0;entryDy=0;entryPerimeter=0;" parent="1" target="ZOv54P5JUt-0kfKtkWaR-14" edge="1">
          <mxGeometry relative="1" as="geometry">
            <mxPoint x="510" y="-300" as="sourcePoint" />
          </mxGeometry>
        </mxCell>
        <mxCell id="ZOv54P5JUt-0kfKtkWaR-14" value="" style="shape=cylinder3;whiteSpace=wrap;html=1;boundedLbl=1;backgroundOutline=1;size=15;" parent="1" vertex="1">
          <mxGeometry x="480" y="-465" width="60" height="80" as="geometry" />
        </mxCell>
        <mxCell id="ZOv54P5JUt-0kfKtkWaR-34" value="" style="edgeStyle=orthogonalEdgeStyle;rounded=0;orthogonalLoop=1;jettySize=auto;html=1;" parent="1" source="ZOv54P5JUt-0kfKtkWaR-32" edge="1">
          <mxGeometry relative="1" as="geometry">
            <mxPoint x="570" y="50" as="targetPoint" />
            <Array as="points">
              <mxPoint x="520" y="50" />
              <mxPoint x="520" y="50" />
            </Array>
          </mxGeometry>
        </mxCell>
        <mxCell id="ZOv54P5JUt-0kfKtkWaR-40" style="edgeStyle=orthogonalEdgeStyle;rounded=0;orthogonalLoop=1;jettySize=auto;html=1;exitX=0;exitY=0.25;exitDx=0;exitDy=0;entryX=1;entryY=0;entryDx=0;entryDy=27.5;entryPerimeter=0;" parent="1" source="ZOv54P5JUt-0kfKtkWaR-32" target="ZOv54P5JUt-0kfKtkWaR-39" edge="1">
          <mxGeometry relative="1" as="geometry" />
        </mxCell>
        <mxCell id="ZOv54P5JUt-0kfKtkWaR-32" value="REST API&lt;br&gt;(MANAGER)" style="rounded=0;whiteSpace=wrap;html=1;" parent="1" vertex="1">
          <mxGeometry x="370" y="10" width="120" height="50" as="geometry" />
        </mxCell>
        <mxCell id="ZOv54P5JUt-0kfKtkWaR-36" style="edgeStyle=orthogonalEdgeStyle;rounded=0;orthogonalLoop=1;jettySize=auto;html=1;exitX=0;exitY=0.25;exitDx=0;exitDy=0;entryX=1;entryY=0.25;entryDx=0;entryDy=0;" parent="1" target="ZOv54P5JUt-0kfKtkWaR-32" edge="1">
          <mxGeometry relative="1" as="geometry">
            <mxPoint x="570" y="20" as="sourcePoint" />
            <Array as="points">
              <mxPoint x="570" y="23" />
              <mxPoint x="530" y="23" />
            </Array>
          </mxGeometry>
        </mxCell>
        <mxCell id="ZOv54P5JUt-0kfKtkWaR-37" value="REST API&lt;br&gt;(STORE)" style="rounded=0;whiteSpace=wrap;html=1;" parent="1" vertex="1">
          <mxGeometry x="570" y="10" width="120" height="50" as="geometry" />
        </mxCell>
        <mxCell id="ZOv54P5JUt-0kfKtkWaR-41" style="edgeStyle=orthogonalEdgeStyle;rounded=0;orthogonalLoop=1;jettySize=auto;html=1;exitX=1;exitY=0;exitDx=0;exitDy=52.5;exitPerimeter=0;entryX=0;entryY=0.75;entryDx=0;entryDy=0;" parent="1" source="ZOv54P5JUt-0kfKtkWaR-39" target="ZOv54P5JUt-0kfKtkWaR-32" edge="1">
          <mxGeometry relative="1" as="geometry" />
        </mxCell>
        <mxCell id="ZOv54P5JUt-0kfKtkWaR-39" value="" style="shape=cylinder3;whiteSpace=wrap;html=1;boundedLbl=1;backgroundOutline=1;size=15;" parent="1" vertex="1">
          <mxGeometry x="220" y="-5" width="60" height="80" as="geometry" />
        </mxCell>
      </root>
    </mxGraphModel>
  </diagram>
</mxfile>
